<svg width="277" height="69" fill="none" xmlns="http://www.w3.org/2000/svg"><path d="M85.008 48.408c.804 0 2.12-.203 2.344-.494-.67-1.505-.804-4.154-.804-6.534 1.607 1.841 4.04 4.648 5.735 6.534.447.494.692.494 1.116.494.558 0 1.205-.158 1.808-.472.602-.314 1.138-.74 1.406-1.46-.625-.112-1.362-.56-2.076-1.122-.736-.539-1.473-1.28-2.12-1.998l-3.392-3.862 3.08-3.054c.825-.808 1.45-1.459 2.008-2.11.558-.651.937-1.145.937-1.482 0-.471-.49-.674-.937-.786a5.825 5.825 0 00-1.205-.134 7.46 7.46 0 00-1.495.157c.134.381-.045 1.234-1.428 2.56l-3.437 3.232c0-1.167.022-2.896.022-4.198 0-.696-.044-1.123-.267-1.392-.224-.27-.603-.382-1.228-.382-.714 0-1.517.135-2.075.382.29.494.402 1.93.402 3.66v6.398c0 1.662-.313 3.548-.313 4.76 0 .607.268.92.625 1.1.357.18.848.203 1.294.203zM98.863 48.363c.781 0 2.142-.247 2.365-.517-.691-1.504-.781-4.131-.781-5.815V34.6h2.165c1.607 0 2.767.674 2.767 2.56 0 1.751-1.651 2.964-3.57 2.178-.246.337-.447 1.01-.447 1.706 0 1.235.491 1.37 1.562 1.37 3.415 0 5.423-1.909 5.423-5.299 0-1.976-.535-3.278-1.495-4.086-1.674-1.37-4.82-1.145-7.119-1.145-1.45 0-2.142.134-2.834.381.402.764.402 3.031.402 3.705v5.815c0 1.37-.313 4.064-.313 5.142 0 1.302.648 1.437 1.875 1.437zM109.607 48.318h8.971c1.182 0 1.696-.202 1.696-1.213 0-.696-.268-1.549-.514-2.155-.334.18-.959.27-1.584.337-.647.067-1.317.067-1.741.067h-3.526v-4.288h3.08c.312 0 1.317.044 1.584.044.96 0 1.696-.202 1.696-1.19 0-.628-.245-1.369-.491-1.998-.379.27-1.205.404-2.075.404h-3.794v-3.682h4.575c.893 0 1.964.135 2.388.427.245-.606.491-1.37.491-1.998 0-1.348-1.629-1.168-3.214-1.168h-6.092c-.781 0-1.272.18-1.74.382.156.247.223.763.29 1.324.067.562.089 1.235.089 1.707v9.946c0 1.258-.067 2.425-.089 3.054zM123.7 48.385c.736 0 2.053-.18 2.365-.494-.714-1.594-.825-4.154-.825-5.927v-7.387h6.85v7.566c0 .54-.156 3.031-.223 3.817-.044.876-.178 1.841.447 2.2.312.203.803.225 1.45.225.826 0 2.142-.202 2.366-.494-.692-1.527-.804-4.198-.804-5.927v-6.04c0-.718.045-3.031.402-3.705a5.64 5.64 0 00-1.942-.381h-10.22c-.714 0-1.384.134-1.919.381.402.764.402 3.076.402 3.795v6.107c0 2.447-.313 3.547-.313 4.827 0 .651.156 1.01.469 1.19.312.202.781.247 1.495.247zM139.603 48.408c.803 0 2.12-.203 2.343-.494-.669-1.505-.803-4.154-.803-6.534 1.606 1.841 4.039 4.648 5.735 6.534.446.494.692.494 1.116.494.557 0 1.205-.158 1.807-.472.603-.314 1.138-.74 1.406-1.46-.625-.112-1.361-.56-2.075-1.122-.737-.539-1.473-1.28-2.12-1.998l-3.392-3.862 3.079-3.054c.826-.808 1.451-1.459 2.009-2.11.558-.651.937-1.145.937-1.482 0-.471-.491-.674-.937-.786a5.827 5.827 0 00-1.205-.134c-.536 0-1.071.067-1.495.157.133.381-.045 1.234-1.429 2.56l-3.436 3.232c0-1.167.022-2.896.022-4.198 0-.696-.045-1.123-.268-1.392-.223-.27-.602-.382-1.227-.382-.714 0-1.518.135-2.075.382.29.494.401 1.93.401 3.66v6.398c0 1.662-.312 3.548-.312 4.76 0 .607.268.92.625 1.1.357.18.848.203 1.294.203zM154.038 48.318c.87 0 1.807-.045 2.187-.674l5.891-9.654.625-1.46-.156 1.909V42.3c0 .742-.067 1.595-.157 2.403-.089.808-.156 1.572-.156 2.133 0 .651.134 1.033.447 1.212.312.202.803.247 1.517.247 1.049 0 2.098-.247 2.299-.494-.335-.718-.536-1.684-.648-2.694a29.381 29.381 0 01-.156-3.12v-6.063c0-1.482.089-3.076.402-3.66-.513-.247-1.361-.381-2.232-.381-1.138 0-1.673.202-1.874.471-.156.202-.29.427-6.048 9.857l-.848 2.2.313-3.12v-6.04l.022-1.752c0-1.325-.379-1.684-1.562-1.684-.692 0-1.54.045-2.232.472.201.359.38 1.055.469 1.751.089.719.134 1.392.134 1.751v6.152c0 1.01-.045 2.11-.134 3.121-.112 1.01-.312 1.954-.647 2.695.245.291 1.74.56 2.544.56zM175.529 30.019c-1.964 0-3.459-.786-3.459-1.976 0-.696.245-1.46.691-2.043.982 1.01 1.786 1.482 2.768 1.482.981 0 1.785-.472 2.767-1.482.446.584.691 1.347.691 2.043 0 1.19-1.495 1.976-3.458 1.976zm-4.977 18.299c.87 0 1.808-.045 2.187-.674l5.891-9.654.625-1.46-.156 1.909V42.3c0 .742-.067 1.595-.156 2.403s-.156 1.572-.156 2.133c0 .651.133 1.033.446 1.212.312.202.803.247 1.517.247 1.049 0 2.098-.247 2.299-.494-.335-.718-.536-1.684-.647-2.694a29.12 29.12 0 01-.157-3.12v-6.063c0-1.482.09-3.076.402-3.66-.513-.247-1.361-.381-2.231-.381-1.138 0-1.674.202-1.875.471-.156.202-.29.427-6.047 9.857l-.848 2.2.312-3.12v-6.04l.022-1.752c0-1.325-.379-1.684-1.562-1.684-.692 0-1.539.045-2.231.472.201.359.379 1.055.468 1.751.09.719.134 1.392.134 1.751v6.152c0 1.01-.044 2.11-.134 3.121-.111 1.01-.312 1.954-.647 2.695.246.291 1.741.56 2.544.56zM204.785 45.579h-1.674l-.602-1.392c-.379-.921-.67-1.662-.937-2.448l-2.611-7.88c-.268-.809-.469-1.303-.804-1.595-.357-.27-.848-.359-1.718-.359-.96 0-1.919.202-2.522.471.179.248.246.54.246.809 0 .27-.045.516-.112.673l-2.789 8.443-.38 1.01c-.111.292-.245.651-.401 1.033a48.52 48.52 0 01-.491 1.235h-1.718c0-.405-.134 5.433-.134 4.984 0 .696.134 1.055.424 1.235.29.18.758.202 1.45.202.558 0 1.161-.112 1.674-.404-.246-.36-.491-1.213-.558-2.043-.045-.629-.022-.943-.022-1.1h10.823l-.023 1.1c-.067.83-.334 1.684-.58 2.043.513.292 1.138.404 1.696.404.647 0 1.138-.045 1.451-.247.312-.18.446-.494.446-1.19 0-.314-.067-2.268-.134-4.984zm-11.18 0c.156-1.033.536-2.448.848-3.436.647-2.133 1.674-5.119 2.008-6.107.625 1.73 1.853 5.613 1.986 6.062.246.786.625 2.156.804 3.48h-5.646zM213.644 48.587c2.767 0 4.843-.988 6.271-2.56 1.406-1.571 2.12-3.749 2.12-6.196 0-2.537-.826-4.693-2.299-6.22-1.473-1.504-3.615-2.357-6.136-2.357-2.388 0-4.464.853-5.981 2.357-1.518 1.527-2.432 3.66-2.432 6.242 0 2.447.758 4.625 2.209 6.197 1.428 1.572 3.548 2.537 6.248 2.537zm-.022-2.941c-1.674 0-2.901-.786-3.705-1.953-.825-1.145-1.227-2.65-1.227-4.154 0-1.527.536-2.919 1.428-3.93.871-1.01 2.098-1.638 3.504-1.638 1.361 0 2.611.65 3.503 1.661.893 1.01 1.429 2.403 1.429 3.907 0 1.639-.447 3.188-1.295 4.288-.848 1.1-2.097 1.819-3.637 1.819zM225.178 48.475c1.049 0 1.942-.247 2.321-.494-.803-1.55-.803-4.109-.803-5.815V40.01l-.38-3.39.781 2.156 2.366 4.647c.178.337.692 1.302.937 1.437.268.157.826.247 1.473.247.469 0 1.004-.067 1.517-.224-.156-.315.246-1.033.491-1.46l2.745-4.67.781-2.133-.357 3.368v2.47c0 2.65-.29 3.435-.29 4.67 0 1.167.625 1.347 1.875 1.347.781 0 2.142-.247 2.365-.516-.736-1.505-.781-2.942-.781-5.3v-6.51c0-1.527.112-3.323.379-3.952a5.683 5.683 0 00-1.986-.382c-.535 0-1.049.068-1.517.314-.29.158-.513.562-1.004 1.393l-4.33 7.633-3.927-7.633c-.424-.831-.558-1.145-1.004-1.37-.514-.27-1.027-.314-1.629-.314-.781 0-1.54.157-2.053.359.29.786.401 2.425.401 3.951v6.512c0 2.357-.29 3.592-.29 4.49 0 .988.469 1.325 1.919 1.325z" fill="#A0A0A0"/><path d="M97.25 0L49.5 65.864l1.825 2.508L96.897 5.434l11.305 15.585h4.298L97.25 0zM52.875 11.395H14.389L0 31.75h4.218l10.17-14.393L31.09 41.023l21.786-29.628z" fill="#316C48"/><path d="M94.5 0H65.577L33.75 41.94l15.042 20.734L94.5 0zM13.5 23.93h-2.25v2.28h2.25v-2.28zM16.875 23.93h-2.25v2.28h2.25v-2.28zM13.5 27.349h-2.25v4.558h2.25v-4.558zM16.875 27.349h-2.25v4.558h2.25v-4.558zM96.75 13.674h-3.375v4.559h3.375v-4.559zM100.125 13.674h-2.25v4.559h2.25v-4.559z" fill="#666"/><path d="M96.75 18.233h-3.375v3.418h3.375v-3.418zM100.125 18.233h-2.25v3.418h2.25v-3.418z" fill="#666"/><path d="M84.008 47.408c.804 0 2.12-.203 2.344-.494-.67-1.505-.804-4.154-.804-6.534 1.607 1.841 4.04 4.648 5.735 6.534.447.494.692.494 1.116.494.558 0 1.205-.158 1.808-.472.602-.314 1.138-.74 1.406-1.46-.625-.112-1.362-.56-2.076-1.122-.736-.539-1.473-1.28-2.12-1.998l-3.392-3.862 3.08-3.054c.825-.808 1.45-1.459 2.008-2.11.558-.651.937-1.145.937-1.482 0-.471-.49-.674-.937-.786a5.825 5.825 0 00-1.205-.135 7.46 7.46 0 00-1.495.158c.134.381-.045 1.234-1.428 2.56l-3.437 3.232c0-1.167.022-2.896.022-4.198 0-.696-.044-1.123-.267-1.392-.224-.27-.603-.382-1.228-.382-.714 0-1.517.135-2.075.382.29.494.402 1.93.402 3.66v6.398c0 1.662-.313 3.548-.313 4.76 0 .607.268.92.625 1.1.357.18.848.203 1.294.203zM97.863 47.363c.781 0 2.142-.247 2.365-.517-.691-1.504-.78-4.131-.78-5.815V33.6h2.164c1.607 0 2.767.674 2.767 2.56 0 1.751-1.651 2.964-3.57 2.178-.246.337-.447 1.01-.447 1.706 0 1.235.491 1.37 1.562 1.37 3.415 0 5.423-1.909 5.423-5.299 0-1.976-.535-3.278-1.495-4.086-1.674-1.37-4.82-1.145-7.119-1.145-1.45 0-2.142.134-2.834.381.402.764.402 3.031.402 3.705v5.815c0 1.37-.313 4.064-.313 5.142 0 1.302.648 1.437 1.875 1.437zM108.607 47.318h8.971c1.182 0 1.696-.202 1.696-1.213 0-.696-.268-1.549-.514-2.155-.334.18-.959.27-1.584.337-.647.067-1.317.067-1.741.067h-3.526v-4.288h3.08c.312 0 1.317.044 1.584.044.96 0 1.696-.202 1.696-1.19 0-.628-.245-1.369-.491-1.998-.379.27-1.205.404-2.075.404h-3.794v-3.682h4.575c.893 0 1.964.135 2.388.427.245-.606.491-1.37.491-1.998 0-1.348-1.629-1.168-3.214-1.168h-6.092c-.781 0-1.272.18-1.74.382.156.247.223.763.29 1.324.067.562.089 1.235.089 1.707v9.946c0 1.258-.067 2.425-.089 3.054zM122.7 47.385c.736 0 2.053-.18 2.365-.494-.714-1.594-.825-4.154-.825-5.927v-7.387h6.85v7.566c0 .54-.156 3.031-.223 3.817-.044.876-.178 1.841.447 2.2.312.203.803.225 1.45.225.826 0 2.142-.202 2.366-.494-.692-1.527-.804-4.198-.804-5.927v-6.04c0-.718.045-3.031.402-3.705a5.64 5.64 0 00-1.942-.381h-10.22c-.714 0-1.384.134-1.919.381.402.764.402 3.076.402 3.795v6.107c0 2.447-.313 3.547-.313 4.827 0 .651.156 1.01.469 1.19.312.202.781.247 1.495.247zM138.603 47.408c.803 0 2.12-.203 2.343-.494-.669-1.505-.803-4.154-.803-6.534 1.606 1.841 4.039 4.648 5.735 6.534.446.494.692.494 1.116.494.557 0 1.205-.158 1.807-.472.603-.314 1.138-.74 1.406-1.46-.625-.112-1.361-.56-2.075-1.122-.737-.539-1.473-1.28-2.12-1.998l-3.392-3.862 3.079-3.054c.826-.808 1.451-1.459 2.009-2.11.558-.651.937-1.145.937-1.482 0-.471-.491-.674-.937-.786a5.827 5.827 0 00-1.205-.135c-.536 0-1.071.068-1.495.158.133.381-.045 1.234-1.429 2.56l-3.436 3.232c0-1.167.022-2.896.022-4.198 0-.696-.045-1.123-.268-1.392-.223-.27-.602-.382-1.227-.382-.714 0-1.518.135-2.075.382.29.494.401 1.93.401 3.66v6.398c0 1.662-.312 3.548-.312 4.76 0 .607.268.92.625 1.1.357.18.848.203 1.294.203zM153.038 47.318c.87 0 1.807-.045 2.187-.674l5.891-9.654.625-1.46-.156 1.909V41.3c0 .742-.067 1.595-.157 2.403-.089.808-.156 1.572-.156 2.133 0 .651.134 1.033.447 1.212.312.202.803.247 1.517.247 1.049 0 2.098-.247 2.299-.494-.335-.718-.536-1.684-.648-2.694a29.381 29.381 0 01-.156-3.12v-6.063c0-1.482.089-3.076.402-3.66-.513-.247-1.361-.381-2.232-.381-1.138 0-1.673.202-1.874.471-.156.202-.29.427-6.048 9.857l-.848 2.2.313-3.12v-6.04l.022-1.752c0-1.325-.379-1.684-1.562-1.684-.692 0-1.54.045-2.232.472.201.359.38 1.055.469 1.751.089.719.134 1.392.134 1.751v6.152c0 1.01-.045 2.11-.134 3.121-.112 1.01-.312 1.954-.647 2.695.245.291 1.74.56 2.544.56zM174.529 29.019c-1.964 0-3.459-.786-3.459-1.976 0-.696.245-1.46.691-2.043.982 1.01 1.786 1.482 2.768 1.482.981 0 1.785-.472 2.767-1.482.446.584.691 1.347.691 2.043 0 1.19-1.495 1.976-3.458 1.976zm-4.977 18.299c.87 0 1.808-.045 2.187-.674l5.891-9.654.625-1.46-.156 1.909V41.3c0 .742-.067 1.595-.156 2.403s-.156 1.572-.156 2.133c0 .651.133 1.033.446 1.212.312.202.803.247 1.517.247 1.049 0 2.098-.247 2.299-.494-.335-.718-.536-1.684-.647-2.694a29.12 29.12 0 01-.157-3.12v-6.063c0-1.482.09-3.076.402-3.66-.513-.247-1.361-.381-2.231-.381-1.138 0-1.674.202-1.875.471-.156.202-.29.427-6.047 9.857l-.848 2.2.312-3.12v-6.04l.022-1.752c0-1.325-.379-1.684-1.562-1.684-.692 0-1.539.045-2.231.472.201.359.379 1.055.468 1.751.09.719.134 1.392.134 1.751v6.152c0 1.01-.044 2.11-.134 3.121-.111 1.01-.312 1.954-.647 2.695.246.291 1.741.56 2.544.56zM203.785 44.579h-1.674l-.602-1.392c-.379-.921-.67-1.662-.937-2.448l-2.611-7.88c-.268-.809-.469-1.303-.804-1.595-.357-.27-.848-.359-1.718-.359-.96 0-1.919.202-2.522.471.179.247.246.54.246.809 0 .27-.045.516-.112.673l-2.789 8.443-.38 1.01c-.111.292-.245.651-.401 1.033a48.52 48.52 0 01-.491 1.235h-1.718c0-.405-.134 5.433-.134 4.984 0 .696.134 1.055.424 1.235.29.18.758.202 1.45.202.558 0 1.161-.112 1.674-.404-.246-.36-.491-1.213-.558-2.043-.045-.629-.022-.943-.022-1.1h10.823l-.023 1.1c-.067.83-.334 1.684-.58 2.043.513.292 1.138.404 1.696.404.647 0 1.138-.045 1.451-.247.312-.18.446-.494.446-1.19 0-.314-.067-2.268-.134-4.984zm-11.18 0c.156-1.033.536-2.448.848-3.436.647-2.133 1.674-5.119 2.008-6.107.625 1.73 1.853 5.613 1.986 6.062.246.786.625 2.156.804 3.48h-5.646zM212.644 47.587c2.767 0 4.843-.988 6.271-2.56 1.406-1.571 2.12-3.749 2.12-6.196 0-2.537-.826-4.693-2.299-6.22-1.473-1.504-3.615-2.357-6.136-2.357-2.388 0-4.464.853-5.981 2.357-1.518 1.527-2.432 3.66-2.432 6.242 0 2.447.758 4.625 2.209 6.197 1.428 1.572 3.548 2.537 6.248 2.537zm-.022-2.941c-1.674 0-2.901-.786-3.705-1.953-.825-1.145-1.227-2.65-1.227-4.154 0-1.527.536-2.919 1.428-3.93.871-1.01 2.098-1.638 3.504-1.638 1.361 0 2.611.65 3.503 1.661.893 1.01 1.429 2.403 1.429 3.907 0 1.639-.447 3.188-1.295 4.288-.848 1.1-2.097 1.819-3.637 1.819zM224.178 47.475c1.049 0 1.942-.247 2.321-.494-.803-1.55-.803-4.109-.803-5.815V39.01l-.38-3.39.781 2.156 2.366 4.647c.178.337.692 1.302.937 1.437.268.157.826.247 1.473.247.469 0 1.004-.067 1.517-.224-.156-.315.246-1.033.491-1.46l2.745-4.67.781-2.133-.357 3.368v2.47c0 2.65-.29 3.435-.29 4.67 0 1.167.625 1.347 1.875 1.347.781 0 2.142-.247 2.365-.516-.736-1.505-.781-2.942-.781-5.3v-6.51c0-1.527.112-3.323.379-3.952a5.683 5.683 0 00-1.986-.382c-.535 0-1.049.068-1.517.314-.29.158-.513.562-1.004 1.393l-4.33 7.633-3.927-7.633c-.424-.831-.558-1.145-1.004-1.37-.514-.27-1.027-.314-1.629-.314-.781 0-1.54.157-2.053.359.29.786.401 2.425.401 3.951v6.512c0 2.357-.29 3.592-.29 4.49 0 .988.469 1.325 1.919 1.325z" fill="#316C48"/><path d="M85.442 54.851c-.863 0-1.545.288-2.046.865-.498.573-.747 1.359-.747 2.358 0 1.027.24 1.822.72 2.385.483.558 1.17.837 2.062.837.548 0 1.173-.098 1.875-.295v.8c-.545.204-1.216.306-2.014.306-1.157 0-2.05-.35-2.68-1.052-.627-.702-.94-1.7-.94-2.992 0-.81.15-1.518.45-2.127a3.28 3.28 0 011.311-1.407c.573-.33 1.246-.494 2.02-.494.823 0 1.543.15 2.159.45l-.387.785a4.162 4.162 0 00-1.783-.419zm6.862 2.025h-1.912V62H89.5v-5.124h-1.89v-.763h4.694v.763zm3.355 5.231c-.383 0-.734-.07-1.053-.21a2.001 2.001 0 01-.795-.654h-.064c.043.343.064.67.064.977v2.423h-.892v-8.53h.726l.123.806h.043c.23-.322.496-.555.8-.698a2.433 2.433 0 011.048-.215c.78 0 1.382.267 1.804.8.427.534.64 1.282.64 2.245 0 .967-.217 1.719-.65 2.256-.43.534-1.028.8-1.794.8zm-.13-5.344c-.6 0-1.036.167-1.304.5-.269.333-.407.863-.414 1.59v.198c0 .827.138 1.42.414 1.778.275.355.718.532 1.326.532.509 0 .906-.206 1.193-.618.29-.412.435-.98.435-1.703 0-.733-.145-1.296-.435-1.686-.287-.394-.691-.59-1.214-.59zm8.668 2.288c0 .96-.242 1.71-.725 2.25-.484.538-1.152.806-2.004.806-.526 0-.993-.123-1.402-.37a2.447 2.447 0 01-.945-1.064c-.222-.462-.333-1.002-.333-1.622 0-.96.24-1.706.72-2.24.48-.537 1.146-.805 1.998-.805.823 0 1.477.274 1.96.822.487.547.731 1.289.731 2.223zm-4.485 0c0 .752.15 1.325.451 1.719.301.394.743.59 1.327.59.583 0 1.026-.194 1.326-.585.305-.393.457-.968.457-1.724 0-.748-.152-1.316-.457-1.702-.3-.39-.746-.586-1.337-.586-.584 0-1.024.192-1.321.575-.298.383-.446.954-.446 1.713zm6.341-2.938v3.733l-.038.978-.016.306 3.185-5.017h1.112V62h-.832v-3.599l.016-.709.027-.698-3.18 5.006h-1.112v-5.887h.838zm9.553.763h-1.912V62h-.892v-5.124h-1.89v-.763h4.694v.763zm3.102 5.231c-.87 0-1.557-.265-2.062-.794-.502-.53-.752-1.266-.752-2.208 0-.949.233-1.703.698-2.261.469-.559 1.098-.838 1.885-.838.738 0 1.322.243 1.751.73.43.484.645 1.123.645 1.918v.564h-4.055c.018.69.191 1.215.521 1.573.333.359.8.538 1.402.538a4.74 4.74 0 001.879-.398v.795a4.558 4.558 0 01-.897.29c-.279.061-.617.091-1.015.091zm-.241-5.355c-.473 0-.851.154-1.134.462-.279.308-.444.734-.494 1.279h3.078c0-.563-.126-.992-.376-1.29-.251-.3-.609-.45-1.074-.45zM126.236 62h-.902v-5.124h-1.767c-.097 1.275-.231 2.286-.403 3.035-.172.748-.396 1.296-.671 1.643-.272.347-.62.521-1.042.521-.194 0-.348-.021-.462-.064v-.66c.079.02.168.031.268.031.412 0 .74-.435.983-1.305.244-.87.428-2.191.554-3.964h3.442V62zm2.238-3.454h1.815c1.504 0 2.256.554 2.256 1.66 0 .58-.197 1.024-.591 1.332-.39.308-.963.462-1.718.462h-2.654v-5.887h.892v2.433zm0 .769v1.938h1.719c.472 0 .834-.082 1.085-.247.25-.164.376-.413.376-.746 0-.326-.117-.564-.349-.715-.23-.154-.609-.23-1.139-.23h-1.692zm5.96-3.202v2.466h3.298v-2.466h.891V62h-.891v-2.653h-3.298V62h-.892v-5.887h.892zm9.15 5.887l-.177-.838h-.043c-.294.369-.587.62-.881.752-.29.129-.654.193-1.09.193-.584 0-1.042-.15-1.375-.45-.33-.301-.495-.73-.495-1.284 0-1.19.951-1.812 2.852-1.87l1-.032v-.365c0-.462-.101-.802-.301-1.02-.197-.223-.514-.334-.951-.334-.491 0-1.046.15-1.665.452l-.274-.682c.29-.158.607-.282.951-.371.347-.09.694-.134 1.042-.134.702 0 1.221.155 1.557.467.341.311.511.81.511 1.498V62h-.661zm-2.014-.628c.555 0 .99-.153 1.305-.457.319-.304.478-.73.478-1.278v-.532l-.892.038c-.709.025-1.221.136-1.536.333-.311.193-.467.495-.467.907 0 .323.097.568.29.736.197.168.471.253.822.253zm4.262.628h-1.042l1.692-2.487c-.455-.1-.804-.293-1.047-.58-.24-.29-.36-.653-.36-1.09 0-.537.181-.96.542-1.268.362-.308.867-.462 1.515-.462h2.621V62h-.891v-2.352h-1.488L145.832 62zm.113-4.147c0 .68.494 1.021 1.483 1.021h1.434v-1.987h-1.617c-.867 0-1.3.322-1.3.966zm10.894-1.74h.977l-2.54 2.842 2.75 3.045h-1.042l-2.686-2.981V62h-.891v-5.887h.891v2.863l2.541-2.863zm6.814 2.938c0 .96-.242 1.71-.726 2.25-.483.538-1.151.806-2.003.806-.526 0-.994-.123-1.402-.37a2.446 2.446 0 01-.945-1.064c-.222-.462-.333-1.002-.333-1.622 0-.96.24-1.706.72-2.24.479-.537 1.145-.805 1.998-.805.823 0 1.477.274 1.96.822.487.547.731 1.289.731 2.223zm-4.485 0c0 .752.15 1.325.451 1.719.301.394.743.59 1.327.59.583 0 1.025-.194 1.326-.585.305-.393.457-.968.457-1.724 0-.748-.152-1.316-.457-1.702-.301-.39-.746-.586-1.337-.586-.584 0-1.024.192-1.322.575-.297.383-.445.954-.445 1.713zm8.559 2.09l.167-.5.231-.634 1.595-3.883h1.133V62h-.79v-4.86l-.107.31-.311.822-1.52 3.728h-.747l-1.52-3.738c-.19-.48-.321-.854-.392-1.123V62h-.795v-5.876h1.09l1.542 3.733c.154.394.295.822.424 1.284zm5.374.859h-.891v-5.887h4.941V62h-.902v-5.113h-3.148V62zm9.011 0l-.177-.838h-.043c-.294.369-.588.62-.881.752-.29.129-.654.193-1.09.193-.584 0-1.042-.15-1.375-.45-.33-.301-.495-.73-.495-1.284 0-1.19.951-1.812 2.852-1.87l.999-.032v-.365c0-.462-.1-.802-.3-1.02-.197-.223-.514-.334-.951-.334-.491 0-1.046.15-1.665.452l-.274-.682c.29-.158.607-.282.951-.371.347-.09.694-.134 1.042-.134.702 0 1.221.155 1.557.467.34.311.511.81.511 1.498V62h-.661zm-2.014-.628c.555 0 .99-.153 1.305-.457.319-.304.478-.73.478-1.278v-.532l-.892.038c-.709.025-1.221.136-1.536.333-.311.193-.467.495-.467.907 0 .323.097.568.29.736.197.168.471.253.822.253zm4.858-5.259v2.466h3.298v-2.466h.892V62h-.892v-2.653h-3.298V62h-.891v-5.887h.891zm6.368 0v3.733l-.037.978-.016.306 3.185-5.017h1.112V62h-.833v-3.599l.016-.709.027-.698-3.18 5.006h-1.111v-5.887h.837zm5.88 5.887h-1.042l1.692-2.487c-.455-.1-.804-.293-1.048-.58-.24-.29-.36-.653-.36-1.09 0-.537.181-.96.543-1.268.361-.308.866-.462 1.514-.462h2.622V62h-.892v-2.352h-1.488L197.204 62zm.112-4.147c0 .68.495 1.021 1.483 1.021h1.434v-1.987h-1.617c-.866 0-1.3.322-1.3.966z" fill="#666"/></svg>