<svg width="241" height="69" viewBox="0 0 241 69" fill="none" xmlns="http://www.w3.org/2000/svg">
<path d="M85.755 54.9015C84.9132 54.9015 84.2508 55.1943 83.7677 55.7801C83.2846 56.3658 83.0431 57.1684 83.0431 58.1878C83.0431 59.1995 83.2663 60.0021 83.7128 60.5954C84.1666 61.1812 84.8437 61.4741 85.744 61.4741C86.0881 61.4741 86.4138 61.4436 86.7212 61.3828C87.0286 61.3219 87.3288 61.2459 87.6215 61.1546V62.0446C87.3288 62.1587 87.025 62.2424 86.7102 62.2956C86.4028 62.3489 86.0332 62.3755 85.6013 62.3755C84.8035 62.3755 84.1374 62.2044 83.603 61.862C83.0687 61.5197 82.6661 61.0328 82.3953 60.4015C82.1318 59.7701 82 59.0284 82 58.1763C82 57.3548 82.1427 56.6321 82.4282 56.0083C82.721 55.3769 83.1492 54.8862 83.7128 54.5363C84.2764 54.1788 84.9608 54 85.766 54C86.5931 54 87.3141 54.1598 87.929 54.4793L87.5337 55.3465C87.2922 55.2324 87.0213 55.1297 86.7212 55.0384C86.4284 54.9471 86.1064 54.9015 85.755 54.9015Z" fill="#666666"/>
<path d="M92.7143 56.9896H90.7928V62.2614H89.8376V56.9896H87.9381V56.1452H92.7143V56.9896Z" fill="#666666"/>
<path d="M96.1244 56.0311C96.849 56.0311 97.4309 56.2936 97.8701 56.8185C98.3166 57.3434 98.5399 58.1345 98.5399 59.1919C98.5399 60.2341 98.3166 61.0252 97.8701 61.5654C97.4309 62.1055 96.8454 62.3755 96.1134 62.3755C95.6596 62.3755 95.2826 62.288 94.9825 62.1131C94.6897 61.9305 94.4591 61.7213 94.2908 61.4855H94.2249C94.2395 61.6148 94.2542 61.7784 94.2688 61.9761C94.2835 62.1739 94.2908 62.3451 94.2908 62.4896V65H93.3246V56.1452H94.1151L94.2469 56.9782H94.2908C94.4665 56.712 94.697 56.4876 94.9825 56.305C95.268 56.1224 95.6486 56.0311 96.1244 56.0311ZM95.9487 56.8755C95.3485 56.8755 94.9239 57.0505 94.6751 57.4004C94.4335 57.7503 94.3054 58.2828 94.2908 58.9979V59.1919C94.2908 59.945 94.4079 60.527 94.6421 60.9378C94.8837 61.3409 95.3265 61.5425 95.9707 61.5425C96.3293 61.5425 96.6221 61.4398 96.849 61.2344C97.0833 61.029 97.2553 60.7514 97.3651 60.4015C97.4822 60.0439 97.5407 59.6369 97.5407 59.1805C97.5407 58.4806 97.409 57.9215 97.1455 57.5031C96.8893 57.0847 96.4904 56.8755 95.9487 56.8755Z" fill="#666666"/>
<path d="M104.647 59.1919C104.647 60.2037 104.398 60.9872 103.9 61.5425C103.41 62.0979 102.744 62.3755 101.902 62.3755C101.382 62.3755 100.918 62.2538 100.508 62.0104C100.105 61.7593 99.7868 61.398 99.5526 60.9263C99.3183 60.4471 99.2012 59.8689 99.2012 59.1919C99.2012 58.1802 99.4464 57.4004 99.9369 56.8527C100.427 56.305 101.093 56.0311 101.935 56.0311C102.469 56.0311 102.938 56.1566 103.341 56.4077C103.75 56.6511 104.069 57.0086 104.296 57.4803C104.53 57.9443 104.647 58.5149 104.647 59.1919ZM100.2 59.1919C100.2 59.9146 100.336 60.4889 100.607 60.9149C100.885 61.3333 101.324 61.5425 101.924 61.5425C102.517 61.5425 102.953 61.3333 103.231 60.9149C103.509 60.4889 103.648 59.9146 103.648 59.1919C103.648 58.4692 103.509 57.9025 103.231 57.4917C102.953 57.0809 102.513 56.8755 101.913 56.8755C101.313 56.8755 100.877 57.0809 100.607 57.4917C100.336 57.9025 100.2 58.4692 100.2 59.1919Z" fill="#666666"/>
<path d="M106.541 56.1452V59.8766C106.541 59.9678 106.537 60.1048 106.53 60.2873C106.522 60.4699 106.511 60.6525 106.497 60.8351C106.489 61.0176 106.482 61.1622 106.475 61.2687L109.626 56.1452H110.812V62.2614H109.911V58.6556C109.911 58.5339 109.911 58.3741 109.911 58.1763C109.919 57.9786 109.926 57.7846 109.933 57.5944C109.941 57.3966 109.948 57.2483 109.955 57.1494L106.826 62.2614H105.629V56.1452H106.541Z" fill="#666666"/>
<path d="M116.198 56.9896H114.277V62.2614H113.321V56.9896H111.422V56.1452H116.198V56.9896Z" fill="#666666"/>
<path d="M118.974 56.0311C119.479 56.0311 119.911 56.1452 120.27 56.3734C120.636 56.6017 120.914 56.925 121.104 57.3434C121.302 57.7541 121.4 58.2372 121.4 58.7925V59.3973H117.371C117.386 60.0896 117.554 60.6183 117.876 60.9834C118.205 61.3409 118.663 61.5197 119.248 61.5197C119.622 61.5197 119.951 61.4855 120.237 61.417C120.529 61.3409 120.83 61.2344 121.137 61.0975V61.9761C120.837 62.1131 120.54 62.212 120.248 62.2728C119.955 62.3413 119.607 62.3755 119.205 62.3755C118.648 62.3755 118.154 62.2576 117.722 62.0218C117.298 61.786 116.965 61.436 116.723 60.972C116.489 60.5003 116.372 59.926 116.372 59.249C116.372 58.5795 116.478 58.0052 116.69 57.5259C116.91 57.0467 117.214 56.6777 117.602 56.4191C117.997 56.1604 118.454 56.0311 118.974 56.0311ZM118.963 56.8527C118.502 56.8527 118.136 57.0086 117.865 57.3205C117.602 57.6248 117.444 58.0508 117.393 58.5985H120.39C120.383 58.0813 120.266 57.6629 120.039 57.3434C119.812 57.0163 119.453 56.8527 118.963 56.8527Z" fill="#666666"/>
<path d="M126.829 62.2614H125.852V56.9782H124.117C124.022 58.2638 123.89 59.3022 123.722 60.0934C123.554 60.8769 123.331 61.4474 123.052 61.805C122.774 62.1625 122.423 62.3413 121.998 62.3413C121.903 62.3413 121.808 62.3337 121.713 62.3185C121.625 62.3109 121.552 62.2918 121.493 62.2614V61.5083C121.537 61.5235 121.585 61.5349 121.636 61.5425C121.687 61.5501 121.738 61.5539 121.79 61.5539C122.185 61.5539 122.5 61.1165 122.734 60.2417C122.976 59.3669 123.159 58.0014 123.283 56.1452H126.829V62.2614Z" fill="#666666"/>
<path d="M129.114 58.6556H130.86C132.39 58.6556 133.155 59.2337 133.155 60.39C133.155 60.9606 132.968 61.417 132.595 61.7593C132.222 62.0941 131.629 62.2614 130.816 62.2614H128.148V56.1452H129.114V58.6556ZM132.189 60.4471C132.189 60.0743 132.061 59.8233 131.804 59.694C131.556 59.5571 131.204 59.4886 130.75 59.4886H129.114V61.4512H130.772C131.182 61.4512 131.519 61.3752 131.783 61.223C132.053 61.0709 132.189 60.8122 132.189 60.4471Z" fill="#666666"/>
<path d="M135.085 56.1452V58.6898H138.28V56.1452H139.246V62.2614H138.28V59.5342H135.085V62.2614H134.118V56.1452H135.085Z" fill="#666666"/>
<path d="M142.789 56.0425C143.507 56.0425 144.037 56.2061 144.381 56.5332C144.725 56.8603 144.897 57.3814 144.897 58.0965V62.2614H144.195L144.008 61.3942H143.964C143.708 61.7289 143.437 61.9761 143.152 62.1359C142.873 62.2956 142.485 62.3755 141.988 62.3755C141.453 62.3755 141.011 62.231 140.659 61.9419C140.308 61.6452 140.132 61.185 140.132 60.5612C140.132 59.9526 140.363 59.4848 140.824 59.1577C141.285 58.823 141.995 58.6404 142.954 58.61L143.953 58.5757V58.2106C143.953 57.7009 143.847 57.3472 143.635 57.1494C143.422 56.9516 143.122 56.8527 142.734 56.8527C142.427 56.8527 142.134 56.9021 141.856 57.001C141.578 57.0923 141.318 57.1988 141.076 57.3205L140.78 56.5674C141.036 56.4229 141.34 56.3012 141.691 56.2023C142.043 56.0958 142.409 56.0425 142.789 56.0425ZM143.942 59.2718L143.075 59.306C142.343 59.3364 141.834 59.4582 141.549 59.6712C141.27 59.8842 141.131 60.1846 141.131 60.5726C141.131 60.9149 141.23 61.166 141.428 61.3257C141.633 61.4855 141.893 61.5654 142.207 61.5654C142.705 61.5654 143.119 61.4246 143.448 61.1432C143.777 60.8541 143.942 60.4129 143.942 59.8195V59.2718Z" fill="#666666"/>
<path d="M146.528 62.2614H145.408L147.088 59.694C146.861 59.6331 146.642 59.538 146.429 59.4087C146.217 59.2718 146.045 59.0854 145.913 58.8496C145.782 58.6062 145.716 58.3057 145.716 57.9481C145.716 57.3624 145.906 56.9174 146.287 56.6131C146.667 56.3012 147.172 56.1452 147.802 56.1452H150.437V62.2614H149.471V59.8309H148.043L146.528 62.2614ZM146.649 57.9595C146.649 58.3095 146.773 58.5719 147.022 58.7469C147.279 58.9142 147.634 58.9979 148.087 58.9979H149.471V56.9782H147.901C147.454 56.9782 147.132 57.0695 146.935 57.2521C146.744 57.4346 146.649 57.6705 146.649 57.9595Z" fill="#666666"/>
<path d="M157.158 56.1452H158.213L155.698 59.0892L158.421 62.2614H157.301L154.644 59.1577V62.2614H153.678V56.1452H154.644V59.112L157.158 56.1452Z" fill="#666666"/>
<path d="M163.842 59.1919C163.842 60.2037 163.594 60.9872 163.096 61.5425C162.605 62.0979 161.939 62.3755 161.098 62.3755C160.578 62.3755 160.113 62.2538 159.703 62.0104C159.301 61.7593 158.982 61.398 158.748 60.9263C158.514 60.4471 158.397 59.8689 158.397 59.1919C158.397 58.1802 158.642 57.4004 159.132 56.8527C159.623 56.305 160.289 56.0311 161.13 56.0311C161.665 56.0311 162.133 56.1566 162.536 56.4077C162.946 56.6511 163.264 57.0086 163.491 57.4803C163.725 57.9443 163.842 58.5149 163.842 59.1919ZM159.396 59.1919C159.396 59.9146 159.531 60.4889 159.802 60.9149C160.08 61.3333 160.519 61.5425 161.12 61.5425C161.712 61.5425 162.148 61.3333 162.426 60.9149C162.704 60.4889 162.843 59.9146 162.843 59.1919C162.843 58.4692 162.704 57.9025 162.426 57.4917C162.148 57.0809 161.709 56.8755 161.109 56.8755C160.508 56.8755 160.073 57.0809 159.802 57.4917C159.531 57.9025 159.396 58.4692 159.396 59.1919Z" fill="#666666"/>
<path d="M171.138 56.1452V62.2614H170.271V58.3589C170.271 58.1992 170.274 58.0318 170.282 57.8568C170.296 57.6819 170.311 57.5107 170.326 57.3434H170.293L168.371 62.2614H167.559L165.692 57.3434H165.659C165.681 57.6857 165.692 58.0356 165.692 58.3932V62.2614H164.825V56.1452H166.109L167.965 61.0633L169.853 56.1452H171.138Z" fill="#666666"/>
<path d="M177.441 56.1452V62.2614H176.475V57.001H173.434V62.2614H172.468V56.1452H177.441Z" fill="#666666"/>
<path d="M180.999 56.0425C181.716 56.0425 182.247 56.2061 182.591 56.5332C182.935 56.8603 183.107 57.3814 183.107 58.0965V62.2614H182.404L182.218 61.3942H182.174C181.918 61.7289 181.647 61.9761 181.361 62.1359C181.083 62.2956 180.695 62.3755 180.197 62.3755C179.663 62.3755 179.22 62.231 178.869 61.9419C178.518 61.6452 178.342 61.185 178.342 60.5612C178.342 59.9526 178.572 59.4848 179.034 59.1577C179.495 58.823 180.205 58.6404 181.164 58.61L182.163 58.5757V58.2106C182.163 57.7009 182.057 57.3472 181.844 57.1494C181.632 56.9516 181.332 56.8527 180.944 56.8527C180.637 56.8527 180.344 56.9021 180.066 57.001C179.788 57.0923 179.528 57.1988 179.286 57.3205L178.99 56.5674C179.246 56.4229 179.55 56.3012 179.901 56.2023C180.252 56.0958 180.618 56.0425 180.999 56.0425ZM182.152 59.2718L181.284 59.306C180.552 59.3364 180.044 59.4582 179.758 59.6712C179.48 59.8842 179.341 60.1846 179.341 60.5726C179.341 60.9149 179.44 61.166 179.638 61.3257C179.842 61.4855 180.102 61.5654 180.417 61.5654C180.915 61.5654 181.328 61.4246 181.658 61.1432C181.987 60.8541 182.152 60.4129 182.152 59.8195V59.2718Z" fill="#666666"/>
<path d="M185.342 56.1452V58.6898H188.537V56.1452H189.503V62.2614H188.537V59.5342H185.342V62.2614H184.376V56.1452H185.342Z" fill="#666666"/>
<path d="M191.729 56.1452V59.8766C191.729 59.9678 191.725 60.1048 191.718 60.2873C191.711 60.4699 191.7 60.6525 191.685 60.8351C191.678 61.0176 191.67 61.1622 191.663 61.2687L194.814 56.1452H196V62.2614H195.1V58.6556C195.1 58.5339 195.1 58.3741 195.1 58.1763C195.107 57.9786 195.114 57.7846 195.122 57.5944C195.129 57.3966 195.136 57.2483 195.144 57.1494L192.014 62.2614H190.818V56.1452H191.729Z" fill="#666666"/>
<path d="M85.0084 48.4076C85.8118 48.4076 87.1284 48.2055 87.3515 47.9136C86.6821 46.4093 86.5482 43.7599 86.5482 41.38C88.1549 43.2211 90.5873 46.0276 92.2833 47.9136C92.7296 48.4076 92.975 48.4076 93.399 48.4076C93.9569 48.4076 94.6041 48.2504 95.2066 47.9361C95.8091 47.6218 96.3447 47.1952 96.6125 46.4767C95.9876 46.3644 95.2512 45.9154 94.5371 45.3541C93.8007 44.8152 93.0643 44.0743 92.4172 43.3558L89.0252 39.494L92.1047 36.4404C92.9304 35.6321 93.5552 34.981 94.1131 34.3299C94.671 33.6788 95.0504 33.1848 95.0504 32.848C95.0504 32.3765 94.5594 32.1744 94.1131 32.0622C93.6445 31.9499 93.1089 31.9275 92.9081 31.9275C92.3725 31.9275 91.8369 31.9948 91.413 32.0846C91.5468 32.4663 91.3683 33.3195 89.9848 34.6442L86.5482 37.8774C86.5482 36.7098 86.5705 34.981 86.5705 33.6788C86.5705 32.9827 86.5259 32.5561 86.3027 32.2867C86.0795 32.0173 85.7002 31.905 85.0753 31.905C84.3612 31.905 83.5579 32.0397 83 32.2867C83.2901 32.7807 83.4017 34.2176 83.4017 35.9465V42.3454C83.4017 44.0069 83.0893 45.8929 83.0893 47.1054C83.0893 47.7116 83.357 48.0259 83.7141 48.2055C84.0711 48.3851 84.5621 48.4076 85.0084 48.4076Z" fill="#A0A0A0"/>
<path d="M98.863 48.3627C99.6441 48.3627 101.005 48.1157 101.228 47.8463C100.537 46.342 100.447 43.715 100.447 42.0311V34.5993H102.612C104.219 34.5993 105.379 35.2729 105.379 37.1589C105.379 38.9102 103.728 40.1226 101.809 39.3368C101.563 39.6736 101.362 40.3472 101.362 41.0432C101.362 42.2781 101.853 42.4128 102.924 42.4128C106.339 42.4128 108.347 40.5043 108.347 37.114C108.347 35.1382 107.812 33.8359 106.852 33.0276C105.178 31.658 102.032 31.8826 99.7333 31.8826C98.2828 31.8826 97.591 32.0173 96.8993 32.2643C97.3009 33.0276 97.3009 35.2953 97.3009 35.9689V41.7841C97.3009 43.1537 96.9885 45.848 96.9885 46.9257C96.9885 48.228 97.6357 48.3627 98.863 48.3627Z" fill="#A0A0A0"/>
<path d="M109.607 48.3178H118.578C119.76 48.3178 120.274 48.1157 120.274 47.1054C120.274 46.4093 120.006 45.5561 119.76 44.9499C119.426 45.1295 118.801 45.2193 118.176 45.2867C117.529 45.3541 116.859 45.3541 116.435 45.3541H112.909V41.0656H115.989C116.301 41.0656 117.306 41.1105 117.573 41.1105C118.533 41.1105 119.269 40.9085 119.269 39.9206C119.269 39.2919 119.024 38.551 118.778 37.9223C118.399 38.1917 117.573 38.3264 116.703 38.3264H112.909V34.6442H117.484C118.377 34.6442 119.448 34.7789 119.872 35.0708C120.117 34.4646 120.363 33.7012 120.363 33.0725C120.363 31.7254 118.734 31.905 117.149 31.905H111.057C110.276 31.905 109.785 32.0846 109.317 32.2867C109.473 32.5337 109.54 33.0501 109.607 33.6114C109.674 34.1727 109.696 34.8463 109.696 35.3178V45.2642C109.696 46.5216 109.629 47.6891 109.607 48.3178Z" fill="#A0A0A0"/>
<path d="M123.7 48.3851C124.436 48.3851 125.753 48.2055 126.065 47.8912C125.351 46.2971 125.24 43.7375 125.24 41.9637V34.5769H132.09V42.1434C132.09 42.6822 131.934 45.1744 131.867 45.9603C131.823 46.8359 131.689 47.8014 132.314 48.1606C132.626 48.3627 133.117 48.3851 133.764 48.3851C134.59 48.3851 135.906 48.1831 136.13 47.8912C135.438 46.3644 135.326 43.6926 135.326 41.9637V35.924C135.326 35.2055 135.371 32.8929 135.728 32.2193C135.215 32.0173 134.478 31.8377 133.786 31.8377H123.566C122.852 31.8377 122.182 31.9724 121.647 32.2193C122.049 32.9827 122.049 35.2953 122.049 36.0138V42.1209C122.049 44.5682 121.736 45.6684 121.736 46.9482C121.736 47.5993 121.892 47.9585 122.205 48.1382C122.517 48.3402 122.986 48.3851 123.7 48.3851Z" fill="#A0A0A0"/>
<path d="M139.603 48.4076C140.406 48.4076 141.723 48.2055 141.946 47.9136C141.277 46.4093 141.143 43.7599 141.143 41.38C142.749 43.2211 145.182 46.0276 146.878 47.9136C147.324 48.4076 147.57 48.4076 147.994 48.4076C148.551 48.4076 149.199 48.2504 149.801 47.9361C150.404 47.6218 150.939 47.1952 151.207 46.4767C150.582 46.3644 149.846 45.9154 149.132 45.3541C148.395 44.8152 147.659 44.0743 147.012 43.3558L143.62 39.494L146.699 36.4404C147.525 35.6321 148.15 34.981 148.708 34.3299C149.266 33.6788 149.645 33.1848 149.645 32.848C149.645 32.3765 149.154 32.1744 148.708 32.0622C148.239 31.9499 147.704 31.9275 147.503 31.9275C146.967 31.9275 146.432 31.9948 146.008 32.0846C146.141 32.4663 145.963 33.3195 144.579 34.6442L141.143 37.8774C141.143 36.7098 141.165 34.981 141.165 33.6788C141.165 32.9827 141.12 32.5561 140.897 32.2867C140.674 32.0173 140.295 31.905 139.67 31.905C138.956 31.905 138.152 32.0397 137.595 32.2867C137.885 32.7807 137.996 34.2176 137.996 35.9465V42.3454C137.996 44.0069 137.684 45.8929 137.684 47.1054C137.684 47.7116 137.952 48.0259 138.309 48.2055C138.666 48.3851 139.157 48.4076 139.603 48.4076Z" fill="#A0A0A0"/>
<path d="M154.038 48.3178C154.908 48.3178 155.845 48.2729 156.225 47.6442L162.116 37.9896L162.741 36.5302L162.585 38.4387V42.3005C162.585 43.0415 162.518 43.8946 162.428 44.7029C162.339 45.5112 162.272 46.2746 162.272 46.8359C162.272 47.487 162.406 47.8687 162.719 48.0484C163.031 48.2504 163.522 48.2953 164.236 48.2953C165.285 48.2953 166.334 48.0484 166.535 47.8014C166.2 47.0829 165.999 46.1174 165.887 45.1071C165.776 44.0967 165.731 42.9965 165.731 41.9862V35.924C165.731 34.4421 165.82 32.848 166.133 32.2643C165.62 32.0173 164.772 31.8826 163.901 31.8826C162.763 31.8826 162.228 32.0846 162.027 32.3541C161.871 32.5561 161.737 32.7807 155.979 42.2107L155.131 44.4111L155.444 41.2902V35.2504L155.466 33.4991C155.466 32.1744 155.087 31.8152 153.904 31.8152C153.212 31.8152 152.364 31.8601 151.672 32.2867C151.873 32.6459 152.052 33.342 152.141 34.038C152.23 34.7565 152.275 35.4301 152.275 35.7893V41.9413C152.275 42.9516 152.23 44.0518 152.141 45.0622C152.029 46.0725 151.829 47.0155 151.494 47.7565C151.739 48.0484 153.234 48.3178 154.038 48.3178Z" fill="#A0A0A0"/>
<path d="M175.529 30.019C173.565 30.019 172.07 29.2332 172.07 28.0432C172.07 27.3472 172.315 26.5838 172.761 26C173.743 27.0104 174.547 27.4819 175.529 27.4819C176.51 27.4819 177.314 27.0104 178.296 26C178.742 26.5838 178.987 27.3472 178.987 28.0432C178.987 29.2332 177.492 30.019 175.529 30.019ZM170.552 48.3178C171.422 48.3178 172.36 48.2729 172.739 47.6442L178.63 37.9896L179.255 36.5302L179.099 38.4387V42.3005C179.099 43.0415 179.032 43.8946 178.943 44.7029C178.854 45.5112 178.787 46.2746 178.787 46.8359C178.787 47.487 178.92 47.8687 179.233 48.0484C179.545 48.2504 180.036 48.2953 180.75 48.2953C181.799 48.2953 182.848 48.0484 183.049 47.8014C182.714 47.0829 182.513 46.1174 182.402 45.1071C182.29 44.0967 182.245 42.9965 182.245 41.9862V35.924C182.245 34.4421 182.335 32.848 182.647 32.2643C182.134 32.0173 181.286 31.8826 180.416 31.8826C179.278 31.8826 178.742 32.0846 178.541 32.3541C178.385 32.5561 178.251 32.7807 172.494 42.2107L171.646 44.4111L171.958 41.2902V35.2504L171.98 33.4991C171.98 32.1744 171.601 31.8152 170.418 31.8152C169.726 31.8152 168.879 31.8601 168.187 32.2867C168.388 32.6459 168.566 33.342 168.655 34.038C168.745 34.7565 168.789 35.4301 168.789 35.7893V41.9413C168.789 42.9516 168.745 44.0518 168.655 45.0622C168.544 46.0725 168.343 47.0155 168.008 47.7565C168.254 48.0484 169.749 48.3178 170.552 48.3178Z" fill="#A0A0A0"/>
<path d="M204.785 45.5786H203.111L202.509 44.1865C202.13 43.266 201.839 42.525 201.572 41.7392L198.961 33.8584C198.693 33.0501 198.492 32.5561 198.157 32.2643C197.8 31.9948 197.309 31.905 196.439 31.905C195.479 31.905 194.52 32.1071 193.917 32.3765C194.096 32.6235 194.163 32.9154 194.163 33.1848C194.163 33.4542 194.118 33.7012 194.051 33.8584L191.262 42.3005L190.882 43.3109C190.771 43.6028 190.637 43.962 190.481 44.3437C190.325 44.7478 190.168 45.152 189.99 45.5786H188.272C188.272 45.1744 188.138 51.0121 188.138 50.563C188.138 51.2591 188.272 51.6183 188.562 51.7979C188.852 51.9775 189.32 52 190.012 52C190.57 52 191.173 51.8877 191.686 51.5959C191.44 51.2366 191.195 50.3834 191.128 49.5527C191.083 48.924 191.106 48.6097 191.106 48.4525H201.929L201.906 49.5527C201.839 50.3834 201.572 51.2366 201.326 51.5959C201.839 51.8877 202.464 52 203.022 52C203.669 52 204.16 51.9551 204.473 51.753C204.785 51.5734 204.919 51.2591 204.919 50.563C204.919 50.2487 204.852 48.2953 204.785 45.5786ZM193.605 45.5786C193.761 44.5458 194.141 43.1313 194.453 42.1434C195.1 40.0104 196.127 37.0242 196.461 36.0363C197.086 37.7651 198.314 41.6494 198.447 42.0984C198.693 42.8843 199.072 44.2539 199.251 45.5786H193.605Z" fill="#A0A0A0"/>
<path d="M213.644 48.5872C216.411 48.5872 218.487 47.5993 219.915 46.0276C221.321 44.456 222.035 42.2781 222.035 39.8307C222.035 37.2936 221.209 35.1382 219.736 33.6114C218.263 32.1071 216.121 31.2539 213.6 31.2539C211.212 31.2539 209.136 32.1071 207.619 33.6114C206.101 35.1382 205.187 37.2712 205.187 39.8532C205.187 42.3005 205.945 44.4784 207.396 46.0501C208.824 47.6218 210.944 48.5872 213.644 48.5872ZM213.622 45.6459C211.948 45.6459 210.721 44.8601 209.917 43.6926C209.092 42.5475 208.69 41.0432 208.69 39.5389C208.69 38.0121 209.226 36.62 210.118 35.6097C210.989 34.5993 212.216 33.9706 213.622 33.9706C214.983 33.9706 216.233 34.6218 217.125 35.6321C218.018 36.6425 218.554 38.0345 218.554 39.5389C218.554 41.1779 218.107 42.7271 217.259 43.8273C216.411 44.9275 215.162 45.6459 213.622 45.6459Z" fill="#A0A0A0"/>
<path d="M225.178 48.475C226.227 48.475 227.12 48.228 227.499 47.981C226.696 46.4318 226.696 43.8722 226.696 42.1658V40.0104L226.316 36.62L227.097 38.7755L229.463 43.4231C229.641 43.7599 230.155 44.7254 230.4 44.8601C230.668 45.0173 231.226 45.1071 231.873 45.1071C232.342 45.1071 232.877 45.0397 233.39 44.8826C233.234 44.5682 233.636 43.8497 233.881 43.4231L236.626 38.753L237.407 36.62L237.05 39.9879V42.4577C237.05 45.1071 236.76 45.8929 236.76 47.1278C236.76 48.2953 237.385 48.475 238.635 48.475C239.416 48.475 240.777 48.228 241 47.9586C240.264 46.4542 240.219 45.0173 240.219 42.6598V36.1485C240.219 34.6218 240.331 32.8256 240.598 32.1969C240.085 31.9948 239.349 31.8152 238.612 31.8152C238.077 31.8152 237.563 31.8826 237.095 32.1295C236.805 32.2867 236.582 32.6908 236.091 33.5216L231.761 41.1554L227.834 33.5216C227.41 32.6908 227.276 32.3765 226.83 32.152C226.316 31.8826 225.803 31.8377 225.201 31.8377C224.42 31.8377 223.661 31.9948 223.148 32.1969C223.438 32.9827 223.549 34.6218 223.549 36.1485V42.6598C223.549 45.0173 223.259 46.2522 223.259 47.1503C223.259 48.1382 223.728 48.475 225.178 48.475Z" fill="#A0A0A0"/>
<path d="M97.2505 0L49.5 65.8641L51.3252 68.3721L96.8972 5.43394L108.202 21.0192H112.5L97.2505 0Z" fill="#316C48"/>
<path d="M52.875 11.3954H14.3889L0 31.7495H4.21844L14.3889 17.3571L31.0893 41.0233L52.875 11.3954Z" fill="#316C48"/>
<path d="M94.5 0H65.577L33.75 41.9391L48.7923 62.6744L94.5 0Z" fill="#666666"/>
<path d="M13.5 23.9302H11.25V26.2093H13.5V23.9302Z" fill="#666666"/>
<path d="M16.875 23.9302H14.625V26.2093H16.875V23.9302Z" fill="#666666"/>
<path d="M13.5 27.3488H11.25V31.907H13.5V27.3488Z" fill="#666666"/>
<path d="M16.875 27.3488H14.625V31.907H16.875V27.3488Z" fill="#666666"/>
<path d="M96.75 13.6744H93.375V18.2325H96.75V13.6744Z" fill="#666666"/>
<path d="M100.125 13.6744H97.875V18.2325H100.125V13.6744Z" fill="#666666"/>
<path d="M96.75 18.2325H93.375V21.6511H96.75V18.2325Z" fill="#666666"/>
<path d="M100.125 18.2325H97.875V21.6511H100.125V18.2325Z" fill="#666666"/>
<path d="M84.0084 47.4076C84.8118 47.4076 86.1284 47.2055 86.3515 46.9136C85.6821 45.4093 85.5482 42.7599 85.5482 40.38C87.1549 42.2211 89.5873 45.0276 91.2833 46.9136C91.7296 47.4076 91.975 47.4076 92.399 47.4076C92.9569 47.4076 93.6041 47.2504 94.2066 46.9361C94.8091 46.6218 95.3447 46.1952 95.6125 45.4767C94.9876 45.3644 94.2512 44.9154 93.5371 44.3541C92.8007 43.8152 92.0643 43.0743 91.4172 42.3558L88.0252 38.494L91.1047 35.4404C91.9304 34.6321 92.5552 33.981 93.1131 33.3299C93.671 32.6788 94.0504 32.1848 94.0504 31.848C94.0504 31.3765 93.5594 31.1744 93.1131 31.0622C92.6445 30.9499 92.1089 30.9275 91.9081 30.9275C91.3725 30.9275 90.8369 30.9948 90.413 31.0846C90.5468 31.4663 90.3683 32.3195 88.9848 33.6442L85.5482 36.8774C85.5482 35.7098 85.5705 33.981 85.5705 32.6788C85.5705 31.9827 85.5259 31.5561 85.3027 31.2867C85.0795 31.0173 84.7002 30.905 84.0753 30.905C83.3612 30.905 82.5579 31.0397 82 31.2867C82.2901 31.7807 82.4017 33.2176 82.4017 34.9465V41.3454C82.4017 43.0069 82.0893 44.8929 82.0893 46.1054C82.0893 46.7116 82.357 47.0259 82.7141 47.2055C83.0711 47.3851 83.5621 47.4076 84.0084 47.4076Z" fill="#316C48"/>
<path d="M97.863 47.3627C98.6441 47.3627 100.005 47.1157 100.228 46.8463C99.5367 45.342 99.4474 42.715 99.4474 41.0311V33.5993H101.612C103.219 33.5993 104.379 34.2729 104.379 36.1589C104.379 37.9102 102.728 39.1226 100.809 38.3368C100.563 38.6736 100.362 39.3472 100.362 40.0432C100.362 41.2781 100.853 41.4128 101.924 41.4128C105.339 41.4128 107.347 39.5043 107.347 36.114C107.347 34.1382 106.812 32.8359 105.852 32.0276C104.178 30.658 101.032 30.8826 98.7333 30.8826C97.2828 30.8826 96.591 31.0173 95.8993 31.2643C96.3009 32.0276 96.3009 34.2953 96.3009 34.9689V40.7841C96.3009 42.1537 95.9885 44.848 95.9885 45.9257C95.9885 47.228 96.6357 47.3627 97.863 47.3627Z" fill="#316C48"/>
<path d="M108.607 47.3178H117.578C118.76 47.3178 119.274 47.1157 119.274 46.1054C119.274 45.4093 119.006 44.5561 118.76 43.9499C118.426 44.1295 117.801 44.2193 117.176 44.2867C116.529 44.3541 115.859 44.3541 115.435 44.3541H111.909V40.0656H114.989C115.301 40.0656 116.306 40.1105 116.573 40.1105C117.533 40.1105 118.269 39.9085 118.269 38.9206C118.269 38.2919 118.024 37.551 117.778 36.9223C117.399 37.1917 116.573 37.3264 115.703 37.3264H111.909V33.6442H116.484C117.377 33.6442 118.448 33.7789 118.872 34.0708C119.117 33.4646 119.363 32.7012 119.363 32.0725C119.363 30.7254 117.734 30.905 116.149 30.905H110.057C109.276 30.905 108.785 31.0846 108.317 31.2867C108.473 31.5337 108.54 32.0501 108.607 32.6114C108.674 33.1727 108.696 33.8463 108.696 34.3178V44.2642C108.696 45.5216 108.629 46.6891 108.607 47.3178Z" fill="#316C48"/>
<path d="M122.7 47.3851C123.436 47.3851 124.753 47.2055 125.065 46.8912C124.351 45.2971 124.24 42.7375 124.24 40.9637V33.5769H131.09V41.1434C131.09 41.6822 130.934 44.1744 130.867 44.9603C130.823 45.8359 130.689 46.8014 131.314 47.1606C131.626 47.3627 132.117 47.3851 132.764 47.3851C133.59 47.3851 134.906 47.1831 135.13 46.8912C134.438 45.3644 134.326 42.6926 134.326 40.9637V34.924C134.326 34.2055 134.371 31.8929 134.728 31.2193C134.215 31.0173 133.478 30.8377 132.786 30.8377H122.566C121.852 30.8377 121.182 30.9724 120.647 31.2193C121.049 31.9827 121.049 34.2953 121.049 35.0138V41.1209C121.049 43.5682 120.736 44.6684 120.736 45.9482C120.736 46.5993 120.892 46.9585 121.205 47.1382C121.517 47.3402 121.986 47.3851 122.7 47.3851Z" fill="#316C48"/>
<path d="M138.603 47.4076C139.406 47.4076 140.723 47.2055 140.946 46.9136C140.277 45.4093 140.143 42.7599 140.143 40.38C141.749 42.2211 144.182 45.0276 145.878 46.9136C146.324 47.4076 146.57 47.4076 146.994 47.4076C147.551 47.4076 148.199 47.2504 148.801 46.9361C149.404 46.6218 149.939 46.1952 150.207 45.4767C149.582 45.3644 148.846 44.9154 148.132 44.3541C147.395 43.8152 146.659 43.0743 146.012 42.3558L142.62 38.494L145.699 35.4404C146.525 34.6321 147.15 33.981 147.708 33.3299C148.266 32.6788 148.645 32.1848 148.645 31.848C148.645 31.3765 148.154 31.1744 147.708 31.0622C147.239 30.9499 146.704 30.9275 146.503 30.9275C145.967 30.9275 145.432 30.9948 145.008 31.0846C145.141 31.4663 144.963 32.3195 143.579 33.6442L140.143 36.8774C140.143 35.7098 140.165 33.981 140.165 32.6788C140.165 31.9827 140.12 31.5561 139.897 31.2867C139.674 31.0173 139.295 30.905 138.67 30.905C137.956 30.905 137.152 31.0397 136.595 31.2867C136.885 31.7807 136.996 33.2176 136.996 34.9465V41.3454C136.996 43.0069 136.684 44.8929 136.684 46.1054C136.684 46.7116 136.952 47.0259 137.309 47.2055C137.666 47.3851 138.157 47.4076 138.603 47.4076Z" fill="#316C48"/>
<path d="M153.038 47.3178C153.908 47.3178 154.845 47.2729 155.225 46.6442L161.116 36.9896L161.741 35.5302L161.585 37.4387V41.3005C161.585 42.0415 161.518 42.8946 161.428 43.7029C161.339 44.5112 161.272 45.2746 161.272 45.8359C161.272 46.487 161.406 46.8687 161.719 47.0484C162.031 47.2504 162.522 47.2953 163.236 47.2953C164.285 47.2953 165.334 47.0484 165.535 46.8014C165.2 46.0829 164.999 45.1174 164.887 44.1071C164.776 43.0967 164.731 41.9965 164.731 40.9862V34.924C164.731 33.4421 164.82 31.848 165.133 31.2643C164.62 31.0173 163.772 30.8826 162.901 30.8826C161.763 30.8826 161.228 31.0846 161.027 31.3541C160.871 31.5561 160.737 31.7807 154.979 41.2107L154.131 43.4111L154.444 40.2902V34.2504L154.466 32.4991C154.466 31.1744 154.087 30.8152 152.904 30.8152C152.212 30.8152 151.364 30.8601 150.672 31.2867C150.873 31.6459 151.052 32.342 151.141 33.038C151.23 33.7565 151.275 34.4301 151.275 34.7893V40.9413C151.275 41.9516 151.23 43.0518 151.141 44.0622C151.029 45.0725 150.829 46.0155 150.494 46.7565C150.739 47.0484 152.234 47.3178 153.038 47.3178Z" fill="#316C48"/>
<path d="M174.529 29.019C172.565 29.019 171.07 28.2332 171.07 27.0432C171.07 26.3472 171.315 25.5838 171.761 25C172.743 26.0104 173.547 26.4819 174.529 26.4819C175.51 26.4819 176.314 26.0104 177.296 25C177.742 25.5838 177.987 26.3472 177.987 27.0432C177.987 28.2332 176.492 29.019 174.529 29.019ZM169.552 47.3178C170.422 47.3178 171.36 47.2729 171.739 46.6442L177.63 36.9896L178.255 35.5302L178.099 37.4387V41.3005C178.099 42.0415 178.032 42.8946 177.943 43.7029C177.854 44.5112 177.787 45.2746 177.787 45.8359C177.787 46.487 177.92 46.8687 178.233 47.0484C178.545 47.2504 179.036 47.2953 179.75 47.2953C180.799 47.2953 181.848 47.0484 182.049 46.8014C181.714 46.0829 181.513 45.1174 181.402 44.1071C181.29 43.0967 181.245 41.9965 181.245 40.9862V34.924C181.245 33.4421 181.335 31.848 181.647 31.2643C181.134 31.0173 180.286 30.8826 179.416 30.8826C178.278 30.8826 177.742 31.0846 177.541 31.3541C177.385 31.5561 177.251 31.7807 171.494 41.2107L170.646 43.4111L170.958 40.2902V34.2504L170.98 32.4991C170.98 31.1744 170.601 30.8152 169.418 30.8152C168.726 30.8152 167.879 30.8601 167.187 31.2867C167.388 31.6459 167.566 32.342 167.655 33.038C167.745 33.7565 167.789 34.4301 167.789 34.7893V40.9413C167.789 41.9516 167.745 43.0518 167.655 44.0622C167.544 45.0725 167.343 46.0155 167.008 46.7565C167.254 47.0484 168.749 47.3178 169.552 47.3178Z" fill="#316C48"/>
<path d="M203.785 44.5786H202.111L201.509 43.1865C201.13 42.266 200.839 41.525 200.572 40.7392L197.961 32.8584C197.693 32.0501 197.492 31.5561 197.157 31.2643C196.8 30.9948 196.309 30.905 195.439 30.905C194.479 30.905 193.52 31.1071 192.917 31.3765C193.096 31.6235 193.163 31.9154 193.163 32.1848C193.163 32.4542 193.118 32.7012 193.051 32.8584L190.262 41.3005L189.882 42.3109C189.771 42.6028 189.637 42.962 189.481 43.3437C189.325 43.7478 189.168 44.152 188.99 44.5786H187.272C187.272 44.1744 187.138 50.0121 187.138 49.563C187.138 50.2591 187.272 50.6183 187.562 50.7979C187.852 50.9775 188.32 51 189.012 51C189.57 51 190.173 50.8877 190.686 50.5959C190.44 50.2366 190.195 49.3834 190.128 48.5527C190.083 47.924 190.106 47.6097 190.106 47.4525H200.929L200.906 48.5527C200.839 49.3834 200.572 50.2366 200.326 50.5959C200.839 50.8877 201.464 51 202.022 51C202.669 51 203.16 50.9551 203.473 50.753C203.785 50.5734 203.919 50.2591 203.919 49.563C203.919 49.2487 203.852 47.2953 203.785 44.5786ZM192.605 44.5786C192.761 43.5458 193.141 42.1313 193.453 41.1434C194.1 39.0104 195.127 36.0242 195.461 35.0363C196.086 36.7651 197.314 40.6494 197.447 41.0984C197.693 41.8843 198.072 43.2539 198.251 44.5786H192.605Z" fill="#316C48"/>
<path d="M212.644 47.5872C215.411 47.5872 217.487 46.5993 218.915 45.0276C220.321 43.456 221.035 41.2781 221.035 38.8307C221.035 36.2936 220.209 34.1382 218.736 32.6114C217.263 31.1071 215.121 30.2539 212.6 30.2539C210.212 30.2539 208.136 31.1071 206.619 32.6114C205.101 34.1382 204.187 36.2712 204.187 38.8532C204.187 41.3005 204.945 43.4784 206.396 45.0501C207.824 46.6218 209.944 47.5872 212.644 47.5872ZM212.622 44.6459C210.948 44.6459 209.721 43.8601 208.917 42.6926C208.092 41.5475 207.69 40.0432 207.69 38.5389C207.69 37.0121 208.226 35.62 209.118 34.6097C209.989 33.5993 211.216 32.9706 212.622 32.9706C213.983 32.9706 215.233 33.6218 216.125 34.6321C217.018 35.6425 217.554 37.0345 217.554 38.5389C217.554 40.1779 217.107 41.7271 216.259 42.8273C215.411 43.9275 214.162 44.6459 212.622 44.6459Z" fill="#316C48"/>
<path d="M224.178 47.475C225.227 47.475 226.12 47.228 226.499 46.981C225.696 45.4318 225.696 42.8722 225.696 41.1658V39.0104L225.316 35.62L226.097 37.7755L228.463 42.4231C228.641 42.7599 229.155 43.7254 229.4 43.8601C229.668 44.0173 230.226 44.1071 230.873 44.1071C231.342 44.1071 231.877 44.0397 232.39 43.8826C232.234 43.5682 232.636 42.8497 232.881 42.4231L235.626 37.753L236.407 35.62L236.05 38.9879V41.4577C236.05 44.1071 235.76 44.8929 235.76 46.1278C235.76 47.2953 236.385 47.475 237.635 47.475C238.416 47.475 239.777 47.228 240 46.9586C239.264 45.4542 239.219 44.0173 239.219 41.6598V35.1485C239.219 33.6218 239.331 31.8256 239.598 31.1969C239.085 30.9948 238.349 30.8152 237.612 30.8152C237.077 30.8152 236.563 30.8826 236.095 31.1295C235.805 31.2867 235.582 31.6908 235.091 32.5216L230.761 40.1554L226.834 32.5216C226.41 31.6908 226.276 31.3765 225.83 31.152C225.316 30.8826 224.803 30.8377 224.201 30.8377C223.42 30.8377 222.661 30.9948 222.148 31.1969C222.438 31.9827 222.549 33.6218 222.549 35.1485V41.6598C222.549 44.0173 222.259 45.2522 222.259 46.1503C222.259 47.1382 222.728 47.475 224.178 47.475Z" fill="#316C48"/>
</svg>
